# xmcd CD database file generated by Grip 3.3.1
# 
# Track frame offsets:
#       150
#       12799
#       26181
#       35570
#       50339
#       66393
#       74226
#       88077
#       102252
#       114969
#       127962
#       147170
# 
# Disc length: 2084 seconds
# 
# Revision: 2
# Processed by: cddbd v1.5.2PL0 Copyright (c) Steve Scherf et al.
# Submitted via: Grip 3.3.1
# 
DISCID=ab08220c
DTITLE=Tangarine - Fields of Poetry
DYEAR=2008
DGENRE=Country
TTITLE0=Draw some lines
TTITLE1=The one and only thing
TTITLE2=This old robe
TTITLE3=Fields of poetry
TTITLE4=Sea shell dreams
TTITLE5=Once In A Dream
TTITLE6=God will split the river apart
TTITLE7=Diamonds and carols
TTITLE8=Prime roses
TTITLE9=Some Call it Heaven
TTITLE10=Rainy land
TTITLE11=Train of thoughts
EXTD=
EXTT0=
EXTT1=
EXTT2=
EXTT3=
EXTT4=
EXTT5=
EXTT6=
EXTT7=
EXTT8=
EXTT9=
EXTT10=
EXTT11=
PLAYORDER=
